<svg xmlns="http://www.w3.org/2000/svg" viewBox="0 0 24 24" fill="none"><path d="M20 12.05c0 4.3-3.52 7.78-7.86 7.78a7.9 7.9 0 0 1-3.78-.96l-2.64.84.86-2.53a7.65 7.65 0 0 1-1.18-4.13C5.4 7.63 8.9 4.25 12.94 4.25c4.34 0 7.86 3.48 7.86 7.8Z" stroke="#0b5ed7" stroke-width="1.3"/><path d="M9.62 9.21c-.1-.22-.2-.23-.3-.24h-.25c-.09 0-.24.03-.36.18-.12.15-.47.46-.47 1.13 0 .67.48 1.32.54 1.41.07.09.93 1.48 2.3 2.01 1.14.45 1.37.36 1.62.34.25-.02.8-.32.92-.63.11-.3.11-.56.08-.61-.03-.05-.12-.08-.25-.14-.13-.07-.8-.4-.92-.45-.12-.04-.2-.07-.3.07-.1.15-.34.45-.41.54-.08.09-.15.1-.28.03-.13-.06-.55-.2-1.05-.64-.39-.35-.65-.77-.73-.9-.08-.14-.01-.2.05-.27.07-.07.13-.15.19-.23.06-.08.08-.14.12-.24.04-.1.02-.18-.01-.24-.03-.06-.27-.66-.37-.9Z" fill="#0b5ed7"/></svg>